{
  "source": "C:\\Users\\Peter\\Desktop\\stuff\\MIUN\\quantitative_research\\video_compression\\videos\\BVI-HD\\BVI-HD_CDVL_videos\\ORIG\\PlasmaSlowRandom_1920x1080_60fps.mp4",
  "output": "C:\\Users\\Peter\\Desktop\\stuff\\MIUN\\quantitative_research\\video_compression\\compressed_videos\\BVI-HD\\h264\\2.5\\PlasmaSlowRandom_1920x1080_60fps_h264.mp4",
  "codec": "h264",
  "ok": "Input #0, mov,mp4,m4a,3gp,3g2,mj2, from 'C:\\Users\\Peter\\Desktop\\stuff\\MIUN\\quantitative_research\\video_compression\\videos\\BVI-HD\\BVI-HD_CDVL_videos\\ORIG\\PlasmaSlowRandom_1920x1080_60fps.mp4':\n  Metadata:\n    major_brand     : isom\n    minor_version   : 512\n    compatible_brands: isomiso2avc1mp41\n    encoder         : Lavf54.28.101\n  Duration: 00:00:05.00, start: 0.000000, bitrate: 23030 kb/s\n  Stream #0:0[0x1](und): Video: h264 (High 4:4:4 Predictive) (avc1 / 0x31637661), yuv420p(progressive), 1920x1080, 23026 kb/s, 60 fps, 60 tbr, 60 tbn (default)\n    Metadata:\n      handler_name    : VideoHandler\n      vendor_id       : [0][0][0][0]\n[out#0/mp4 @ 0000027c85d7a600] Codec AVOption b:a (set bitrate (in bits/s)) has not been used for any stream. The most likely reason is either wrong type (e.g. a video option with no video streams) or that it is a private option of some decoder which was not actually used for any stream.\nStream mapping:\n  Stream #0:0 -> #0:0 (h264 (native) -> h264 (libx264))\nPress [q] to stop, [?] for help\n[libx264 @ 0000027c86224840] using cpu capabilities: MMX2 SSE2Fast SSSE3 SSE4.2 AVX FMA3 BMI2 AVX2\n[libx264 @ 0000027c86224840] profile High, level 5.0, 4:2:0, 8-bit\n[libx264 @ 0000027c86224840] 264 - core 165 r3222 b35605a - H.264/MPEG-4 AVC codec - Copyleft 2003-2025 - http://www.videolan.org/x264.html - options: cabac=1 ref=5 deblock=1:0:0 analyse=0x3:0x113 me=hex subme=8 psy=1 psy_rd=1.00:0.00 mixed_ref=1 me_range=16 chroma_me=1 trellis=2 8x8dct=1 cqm=0 deadzone=21,11 fast_pskip=1 chroma_qp_offset=-2 threads=18 lookahead_threads=3 sliced_threads=0 nr=0 decimate=1 interlaced=0 bluray_compat=0 constrained_intra=0 bframes=3 b_pyramid=2 b_adapt=1 b_bias=0 direct=3 weightb=1 open_gop=0 weightp=2 keyint=250 keyint_min=25 scenecut=40 intra_refresh=0 rc_lookahead=50 rc=cbr mbtree=1 bitrate=2500 ratetol=1.0 qcomp=0.60 qpmin=0 qpmax=69 qpstep=4 vbv_maxrate=2500 vbv_bufsize=2500 nal_hrd=none filler=0 ip_ratio=1.40 aq=1:1.00\nOutput #0, mp4, to 'C:\\Users\\Peter\\Desktop\\stuff\\MIUN\\quantitative_research\\video_compression\\compressed_videos\\BVI-HD\\h264\\2.5\\PlasmaSlowRandom_1920x1080_60fps_h264.mp4':\n  Metadata:\n    major_brand     : isom\n    minor_version   : 512\n    compatible_brands: isomiso2avc1mp41\n    encoder         : Lavf62.3.100\n  Stream #0:0(und): Video: h264 (avc1 / 0x31637661), yuv420p(tv, progressive), 1920x1080, q=2-31, 2500 kb/s, 60 fps, 15360 tbn (default)\n    Metadata:\n      encoder         : Lavc62.11.100 libx264\n      handler_name    : VideoHandler\n      vendor_id       : [0][0][0][0]\n    Side data:\n      cpb: bitrate max/min/avg: 2500000/0/2500000 buffer size: 2500000 vbv_delay: N/A\nframe=    0 fps=0.0 q=0.0 size=       0KiB time=N/A bitrate=N/A speed=N/A elapsed=0:00:00.53    \nframe=   40 fps= 37 q=25.0 size=       0KiB time=00:00:00.63 bitrate=   0.6kbits/s speed=0.59x elapsed=0:00:01.07    \nframe=  104 fps= 65 q=26.0 size=     256KiB time=00:00:01.63 bitrate=1284.2kbits/s speed=1.02x elapsed=0:00:01.60    \nframe=  151 fps= 70 q=26.0 size=     512KiB time=00:00:02.41 bitrate=1735.7kbits/s speed=1.12x elapsed=0:00:02.15    \nframe=  207 fps= 77 q=26.0 size=     768KiB time=00:00:03.41 bitrate=1841.5kbits/s speed=1.27x elapsed=0:00:02.69    \nframe=  289 fps= 90 q=-1.0 size=    1280KiB time=00:00:04.70 bitrate=2231.1kbits/s speed=1.46x elapsed=0:00:03.21    \n[mp4 @ 0000027c85d7a700] Starting second pass: moving the moov atom to the beginning of the file\n[out#0/mp4 @ 0000027c85d7a600] video:1383KiB audio:0KiB subtitle:0KiB other streams:0KiB global headers:0KiB muxing overhead: 0.315920%\nframe=  300 fps= 91 q=-1.0 Lsize=    1388KiB time=00:00:04.96 bitrate=2288.8kbits/s speed=1.51x elapsed=0:00:03.28    \n[libx264 @ 0000027c86224840] frame I:3     Avg QP: 6.18  size:  9155\n[libx264 @ 0000027c86224840] frame P:76    Avg QP:15.66  size:  6073\n[libx264 @ 0000027c86224840] frame B:221   Avg QP:18.83  size:  4193\n[libx264 @ 0000027c86224840] consecutive B-frames:  1.3%  1.3%  0.0% 97.3%\n[libx264 @ 0000027c86224840] mb I  I16..4: 95.6%  4.2%  0.1%\n[libx264 @ 0000027c86224840] mb P  I16..4:  1.2%  3.8%  0.1%  P16..4:  1.1%  0.4%  0.1%  0.0%  0.0%    skip:93.3%\n[libx264 @ 0000027c86224840] mb B  I16..4:  0.0%  0.7%  0.0%  B16..8:  2.5%  1.3%  0.2%  direct: 0.3%  skip:94.8%  L0:47.0% L1:40.4% BI:12.6%\n[libx264 @ 0000027c86224840] 8x8 transform intra:54.1% inter:96.8%\n[libx264 @ 0000027c86224840] direct mvs  spatial:95.5% temporal:4.5%\n[libx264 @ 0000027c86224840] coded y,uvDC,uvAC intra: 38.1% 47.8% 45.8% inter: 1.5% 2.5% 1.4%\n[libx264 @ 0000027c86224840] i16 v,h,dc,p: 98%  1%  1%  0%\n[libx264 @ 0000027c86224840] i8 v,h,dc,ddl,ddr,vr,hd,vl,hu: 13% 16% 23%  6%  8%  8% 11%  7% 10%\n[libx264 @ 0000027c86224840] i4 v,h,dc,ddl,ddr,vr,hd,vl,hu: 11% 12%  8%  8% 15% 11% 17%  7% 10%\n[libx264 @ 0000027c86224840] i8c dc,h,v,p: 74% 11%  8%  7%\n[libx264 @ 0000027c86224840] Weighted P-Frames: Y:1.3% UV:1.3%\n[libx264 @ 0000027c86224840] ref P L0: 56.9%  2.8% 19.0% 11.5%  9.6%  0.2%\n[libx264 @ 0000027c86224840] ref B L0: 81.4% 13.4%  3.9%  1.3%\n[libx264 @ 0000027c86224840] ref B L1: 96.5%  3.5%\n[libx264 @ 0000027c86224840] kb/s:2265.18\n",
  "seconds": 3.502105236053467,
  "probe_out": {}
}